<?xml version="1.0" standalone="no"?>
<!DOCTYPE svg PUBLIC "-//W3C//DTD SVG 20010904//EN"
 "http://www.w3.org/TR/2001/REC-SVG-20010904/DTD/svg10.dtd">
<svg version="1.0" xmlns="http://www.w3.org/2000/svg"
 width="300.000000pt" height="306.000000pt" viewBox="0 0 300.000000 306.000000"
 preserveAspectRatio="xMidYMid meet">
<metadata>
Created by potrace 1.10, written by Peter Selinger 2001-2011
</metadata>
<defs>
  <!-- Add a subtle drop shadow for depth -->
  <filter id="dropShadow" x="-20%" y="-20%" width="140%" height="140%">
    <feDropShadow dx="3" dy="3" stdDeviation="2" flood-color="#000000" flood-opacity="0.3"/>
  </filter>
</defs>
<!-- Main Georgia outline in forest green with thick white stroke -->
<g transform="translate(0.000000,306.000000) scale(0.100000,-0.100000)"
fill="#2d5a2d" stroke="#ffffff" stroke-width="12" filter="url(#dropShadow)">
<path d="M154 3006 c-7 -19 136 -1091 187 -1396 30 -180 48 -259 66 -299 17
-36 26 -69 24 -98 0 -24 6 -59 14 -79 14 -34 13 -38 -6 -65 -11 -16 -25 -54
-31 -86 -6 -32 -19 -77 -30 -101 l-20 -43 23 -71 c21 -66 21 -75 10 -148 -14
-84 -8 -119 29 -184 10 -17 29 -64 41 -105 20 -63 28 -76 54 -86 16 -7 136
-20 265 -29 543 -40 1280 -97 1348 -105 81 -10 102 -22 102 -57 0 -35 38 -51
76 -32 28 13 29 16 32 98 4 127 23 138 157 100 38 -11 78 -20 87 -20 31 0 54
35 67 100 12 59 11 65 -9 92 -27 36 -21 53 25 75 20 9 37 26 40 38 2 11 7 38
10 60 4 22 18 55 32 73 16 21 28 54 33 94 7 48 16 68 39 92 17 18 31 37 31 43
0 7 22 38 50 69 69 79 66 127 -10 149 -41 12 -60 35 -60 72 0 34 -7 43 -68 90
-17 14 -28 40 -42 106 -24 111 -48 150 -115 188 l-52 29 -18 82 c-11 45 -27
90 -36 99 -22 22 -112 41 -154 33 -32 -6 -33 -8 -44 -79 -7 -41 -24 -98 -39
-127 -25 -49 -30 -53 -67 -56 -34 -2 -56 6 -141 57 l-100 61 -70 -18 -70 -17
0 -46 c1 -65 -16 -82 -75 -77 -33 4 -68 18 -114 46 l-66 42 -165 0 c-226 0
-326 13 -563 71 -253 63 -361 101 -406 144 -40 37 -43 49 -16 71 18 16 18 17
-1 36 -19 19 -19 20 -1 51 52 90 391 224 654 259 l89 12 40 51 c22 29 67 78
99 109 69 65 102 71 174 35 61 -31 176 -119 216 -164 l34 -39 166 -28 c124
-21 186 -27 246 -23 l80 5 -55 -15 c-77 -20 -104 -19 -301 15 -96 16 -178 30
-183 30 -5 0 -3 6 3 14 9 10 2 22 -32 53 -45 42 -142 110 -194 137 -67 34
-101 15 -213 -118 -68 -81 -72 -84 -122 -90 -251 -33 -567 -143 -663 -232 -39
-36 -28 -51 60 -87 29 -11 29 -12 -27 -15 -65 -3 -73 -16 -35 -53 42 -40 176
-85 442 -148 203 -48 256 -54 475 -56 l205 -2 55 -34 c136 -86 176 -80 168 23
l-3 42 87 19 86 20 103 -62 c120 -72 150 -77 175 -28 38 73 58 206 32 208 -7
1 5 7 27 14 92 31 175 10 298 -74 126 -85 203 -111 235 -79 18 18 14 110 -9
209 l-21 89 26 87 c36 126 42 185 21 206 -9 9 -24 17 -33 17 -28 -1 -97 -36
-195 -99 -51 -33 -109 -67 -129 -76 -49 -20 -135 -19 -226 3 -68 17 -86 32
-36 32 19 0 33 22 34 53 0 18 -73 37 -140 37 l-70 0 0 54 c0 47 -4 57 -26 75
-15 12 -36 21 -47 21 -28 0 -102 80 -117 127 -7 21 -22 54 -34 73 -11 19 -29
53 -39 75 -24 53 -53 83 -88 90 -16 4 -31 11 -35 16 -3 5 -27 20 -53 34 -44
22 -61 40 -61 65 0 5 28 41 62 80 50 58 60 75 51 89 -9 15 -76 16 -757 19
-635 2 -747 0 -752 -12z m1456 -31 c0 -3 -20 -32 -45 -66 -25 -34 -45 -72 -45
-85 0 -35 50 -85 123 -122 36 -19 74 -43 85 -55 11 -12 43 -71 72 -131 58
-121 105 -179 156 -196 46 -15 64 -43 57 -89 -3 -20 -7 -37 -8 -39 -2 -3 -228
36 -255 43 -8 3 -42 30 -75 61 -98 92 -221 164 -280 164 -69 0 -113 -34 -237
-184 -21 -25 -36 -30 -133 -47 -262 -44 -545 -155 -624 -244 -27 -31 -31 -43
-30 -84 1 -26 -1 -53 -5 -59 -10 -16 18 -65 53 -95 40 -33 168 -78 364 -128
184 -47 281 -65 403 -75 46 -4 87 -10 89 -15 5 -7 -18 -22 -139 -92 -69 -41
-136 -133 -136 -188 0 -18 -4 -20 -27 -14 -16 3 -44 23 -63 44 -95 100 -206
166 -284 166 -44 0 -51 -4 -81 -38 -18 -20 -38 -59 -45 -85 -7 -26 -14 -55
-17 -66 -4 -13 -12 -2 -30 40 -38 91 -41 106 -73 304 -16 102 -34 214 -40 250
-12 74 -26 176 -75 550 -19 146 -43 321 -53 390 -10 69 -18 139 -17 155 l0 30
195 5 c231 6 1220 2 1220 -5z m-244 -637 c-17 -18 -53 -57 -79 -87 -26 -30
-50 -52 -52 -49 -8 7 137 168 151 168 6 0 -2 -15 -20 -32z m14 -58 c-62 -70
-91 -97 -75 -69 18 29 118 139 127 139 6 0 -18 -32 -52 -70z m64 -12 c-48 -53
-64 -66 -64 -53 0 11 103 116 108 110 3 -2 -17 -28 -44 -57z m51 -18 c-21 -22
-44 -40 -50 -40 -11 1 70 80 82 80 4 0 -11 -18 -32 -40z m85 3 c0 -8 -65 -53
-75 -53 -13 0 9 23 39 41 35 21 36 22 36 12z"/>
</g>
<!-- Golden star with white outline for maximum visibility -->
<g transform="translate(0.000000,306.000000) scale(0.100000,-0.100000)">
<path d="M886 2768 c-8 -13 -22 -41 -33 -63 -17 -38 -20 -40 -74 -45 -57 -5
-89 -22 -89 -47 0 -7 22 -34 49 -59 l49 -45 -16 -60 c-26 -97 5 -122 87 -70
58 37 65 38 106 7 44 -34 78 -41 95 -21 11 13 11 27 0 82 l-13 66 48 42 c41
35 47 45 42 67 -7 27 -37 38 -103 38 -32 0 -36 4 -60 57 -34 78 -61 93 -88 51z
m58 -69 l22 -74 82 0 c45 1 82 -2 82 -5 -1 -3 -28 -23 -61 -44 -33 -21 -62
-42 -64 -46 -3 -4 7 -40 20 -80 14 -41 24 -75 22 -76 -2 -2 -30 17 -63 41 -32
25 -63 45 -68 45 -4 0 -37 -23 -72 -50 -35 -28 -64 -49 -64 -47 0 2 11 37 25
77 14 40 25 77 25 81 0 5 -29 29 -65 54 -36 26 -65 48 -65 49 0 1 38 0 83 -2
l84 -4 23 81 c13 44 25 79 27 77 2 -2 14 -37 27 -77z" 
fill="#FBC02D" stroke="#ffffff" stroke-width="8" filter="url(#dropShadow)"/>
</g>
</svg> 