<?xml version="1.0" standalone="no"?>
<!DOCTYPE svg PUBLIC "-//W3C//DTD SVG 20010904//EN"
 "http://www.w3.org/TR/2001/REC-SVG-20010904/DTD/svg10.dtd">
<svg version="1.0" xmlns="http://www.w3.org/2000/svg"
 width="120.000000pt" height="120.000000pt" viewBox="0 0 300.000000 306.000000"
 preserveAspectRatio="xMidYMid meet">
<metadata>
Created by potrace 1.10, written by Peter Selinger 2001-2011
</metadata>
<defs>
  <!-- Add a subtle drop shadow for depth -->
  <filter id="dropShadow" x="-20%" y="-20%" width="140%" height="140%">
    <feDropShadow dx="2" dy="2" stdDeviation="1.5" flood-color="#000000" flood-opacity="0.4"/>
  </filter>
</defs>
<!-- Main Georgia outline in forest green with thick white stroke -->
<g transform="translate(0.000000,306.000000) scale(0.100000,-0.100000)"
fill="#2d5a2d" stroke="#ffffff" stroke-width="15" filter="url(#dropShadow)">
<path d="M154 3006 c-7 -19 136 -1091 187 -1396 30 -180 48 -259 66 -299 17
-36 26 -69 24 -98 0 -24 6 -59 14 -79 14 -34 13 -38 -6 -65 -11 -16 -25 -54
-31 -86 -6 -32 -19 -77 -30 -101 l-20 -43 23 -71 c21 -66 21 -75 10 -148 -14
-84 -8 -119 29 -184 10 -17 29 -64 41 -105 20 -63 28 -76 54 -86 16 -7 136
-20 265 -29 543 -40 1280 -97 1348 -105 81 -10 102 -22 102 -57 0 -35 38 -51
76 -32 28 13 29 16 32 98 4 127 23 138 157 100 38 -11 78 -20 87 -20 31 0 54
35 67 100 12 59 11 65 -9 92 -27 36 -21 53 25 75 20 9 37 26 40 38 2 11 7 38
10 60 4 22 18 55 32 73 16 21 28 54 33 94 7 48 16 68 39 92 17 18 31 37 31 43
0 7 22 38 50 69 69 79 66 127 -10 149 -41 12 -60 35 -60 72 0 34 -7 43 -68 90
-17 14 -28 40 -42 106 -24 111 -48 150 -115 188 l-52 29 -18 82 c-11 45 -27
90 -36 99 -22 22 -112 41 -154 33 -32 -6 -33 -8 -44 -79 -7 -41 -24 -98 -39
-127 -25 -49 -30 -53 -67 -56 -34 -2 -56 6 -141 57 l-100 61 -70 -18 -70 -17
0 -46 c1 -65 -16 -82 -75 -77 -33 4 -68 18 -114 46 l-66 42 -165 0 c-226 0
-326 13 -563 71 -253 63 -361 101 -406 144 -40 37 -43 49 -16 71 18 16 18 17
-1 36 -19 19 -19 20 -1 51 52 90 391 224 654 259 l89 12 40 51 c22 29 67 78
99 109 69 65 102 71 174 35 61 -31 176 -119 216 -164 l34 -39 166 -28 c124
-21 186 -27 246 -23 l80 5 -55 -15 c-77 -20 -104 -19 -301 15 -96 16 -178 30
-183 30 -5 0 -3 6 3 14 9 10 2 22 -32 53 -45 42 -142 110 -194 137 -67 34
-101 15 -213 -118 -68 -81 -72 -84 -122 -90 -251 -33 -567 -143 -663 -232 -39
-36 -28 -51 60 -87 29 -11 29 -12 -27 -15 -65 -3 -73 -16 -35 -53 42 -40 176
-85 442 -148 203 -48 256 -54 475 -56 l205 -2 55 -34 c136 -86 176 -80 168 23
l-3 42 87 19 86 20 103 -62 c120 -72 150 -77 175 -28 38 73 58 206 32 208 -7
1 5 7 27 14 92 31 175 10 298 -74 126 -85 203 -111 235 -79 18 18 14 110 -9
209 l-21 89 26 87 c36 126 42 185 21 206 -9 9 -24 17 -33 17 -28 -1 -97 -36
-195 -99 -51 -33 -109 -67 -129 -76 -49 -20 -135 -19 -226 3 -68 17 -86 32
-36 32 19 0 33 22 34 53 0 18 -73 37 -140 37 l-70 0 0 54 c0 47 -4 57 -26 75
-15 12 -36 21 -47 21 -28 0 -102 80 -117 127 -7 21 -22 54 -34 73 -11 19 -29
53 -39 75 -24 53 -53 83 -88 90 -16 4 -31 11 -35 16 -3 5 -27 20 -53 34 -44
22 -61 40 -61 65 0 5 28 41 62 80 50 58 60 75 51 89 -9 15 -76 16 -757 19
-635 2 -747 0 -752 -12z"/>
</g>
<!-- Golden star with white outline for maximum visibility -->
<g transform="translate(0.000000,306.000000) scale(0.100000,-0.100000)">
<path d="M886 2768 c-8 -13 -22 -41 -33 -63 -17 -38 -20 -40 -74 -45 -57 -5
-89 -22 -89 -47 0 -7 22 -34 49 -59 l49 -45 -16 -60 c-26 -97 5 -122 87 -70
58 37 65 38 106 7 44 -34 78 -41 95 -21 11 13 11 27 0 82 l-13 66 48 42 c41
35 47 45 42 67 -7 27 -37 38 -103 38 -32 0 -36 4 -60 57 -34 78 -61 93 -88 51z" 
fill="#FBC02D" stroke="#ffffff" stroke-width="10" filter="url(#dropShadow)"/>
</g>
</svg> 